<?xml version="1.0" standalone="no"?>
<!DOCTYPE svg PUBLIC "-//W3C//DTD SVG 20010904//EN"
 "http://www.w3.org/TR/2001/REC-SVG-20010904/DTD/svg10.dtd">
<svg version="1.0" xmlns="http://www.w3.org/2000/svg"
 width="40px" height="70px" viewBox="0 0 498.000000 498.000000"
 preserveAspectRatio="xMidYMid meet">

<g transform="translate(0.000000,498.000000) scale(0.100000,-0.100000)"
fill="#000000" stroke="none">
<path d="M186 4019 l-26 -20 0 -1258 0 -1258 21 -19 c18 -16 40 -19 156 -22
83 -2 145 1 162 7 17 8 37 33 59 76 40 76 137 172 214 211 74 37 179 57 262
49 172 -16 309 -111 398 -275 14 -25 35 -51 49 -57 19 -10 189 -12 754 -10
l730 2 3 1298 2 1297 -1379 0 -1378 0 -27 -21z m1598 -219 c352 -90 604 -341
704 -703 26 -96 23 -355 -6 -462 -74 -271 -264 -498 -516 -616 -126 -59 -219
-80 -371 -86 -105 -4 -149 -1 -225 15 -292 60 -530 246 -660 516 -71 147 -94
249 -94 416 0 108 5 152 23 219 46 174 123 313 240 434 149 155 348 257 564
287 88 12 253 3 341 -20z"/>
<path d="M1423 3716 c-325 -62 -563 -268 -669 -578 -105 -309 -4 -682 242
-895 295 -256 715 -286 1037 -73 193 127 327 334 368 565 17 99 6 292 -21 380
-111 354 -418 593 -785 610 -62 3 -127 -1 -172 -9z m280 -95 c37 -14 97 -70
129 -120 54 -85 34 -146 -82 -254 -43 -40 -184 -174 -313 -299 -250 -242 -261
-249 -341 -234 -45 9 -133 88 -157 141 -23 50 -23 80 -1 126 19 40 598 605
647 632 34 18 82 21 118 8z m376 -440 c91 -47 149 -135 158 -242 5 -49 3 -60
-11 -65 -15 -6 -97 21 -430 139 -49 18 -91 38 -94 45 -7 23 101 119 155 136
63 21 168 14 222 -13z m-348 -217 c24 -9 132 -47 239 -84 242 -84 230 -80 230
-94 0 -26 -73 -96 -127 -122 -139 -68 -310 -10 -377 129 -31 64 -44 150 -26
172 15 18 9 18 61 -1z m-503 -371 c3 -23 4 -23 250 -25 l247 -3 3 -27 c3 -27
5 -28 66 -28 34 0 66 -4 72 -10 5 -5 79 -11 164 -12 130 -3 155 -5 155 -18 0
-13 -25 -15 -155 -18 -85 -1 -159 -7 -164 -12 -6 -6 -38 -10 -72 -10 -61 0
-63 -1 -66 -27 l-3 -28 -247 -3 -247 -2 -3 -23 c-2 -14 -11 -23 -25 -25 -21
-3 -23 1 -23 42 l0 46 -80 0 -80 0 0 -30 c0 -23 -4 -30 -20 -30 -19 0 -20 7
-20 120 0 113 1 120 20 120 16 0 20 -7 20 -30 l0 -30 80 0 80 0 0 38 c0 21 3
42 7 46 14 13 38 1 41 -21z"/>
<path d="M1533 3521 c-43 -38 -114 -105 -158 -150 l-80 -81 110 -110 109 -109
140 136 c78 75 146 146 153 157 25 42 16 90 -26 141 -51 62 -87 85 -133 85
-33 0 -49 -10 -115 -69z"/>
<path d="M1230 2470 l0 -50 230 0 230 0 0 50 0 50 -40 0 c-38 0 -40 -2 -40
-30 0 -19 -6 -33 -16 -37 -19 -7 -34 13 -34 45 0 19 -5 22 -40 22 -38 0 -40
-2 -40 -30 0 -23 -4 -30 -20 -30 -16 0 -20 7 -20 30 0 29 -2 30 -44 30 -43 0
-45 -1 -48 -32 -2 -21 -8 -33 -18 -33 -10 0 -16 12 -18 33 -3 30 -6 32 -43 32
l-39 0 0 -50z"/>
<path d="M3299 3433 c-13 -16 -12 -17 4 -4 16 13 21 21 13 21 -2 0 -10 -8 -17
-17z"/>
<path d="M4216 3397 c3 -10 9 -15 12 -12 3 3 0 11 -7 18 -10 9 -11 8 -5 -6z"/>
<path d="M4246 3335 c4 -8 11 -15 16 -15 6 0 5 6 -2 15 -7 8 -14 15 -16 15 -2
0 -1 -7 2 -15z"/>
<path d="M4450 3283 c0 -6 8 -17 18 -24 16 -13 16 -13 2 6 -8 11 -16 22 -17
24 -2 2 -3 0 -3 -6z"/>
<path d="M4540 3120 c0 -5 5 -10 11 -10 5 0 7 5 4 10 -3 6 -8 10 -11 10 -2 0
-4 -4 -4 -10z"/>
<path d="M4490 2920 c11 -16 26 -33 32 -36 7 -4 -1 9 -16 29 -34 44 -46 50
-16 7z"/>
<path d="M4694 2849 c-3 -6 -2 -15 3 -20 5 -5 9 -1 9 11 0 23 -2 24 -12 9z"/>
<path d="M4565 2786 c10 -14 19 -26 22 -26 7 0 -17 39 -28 46 -6 3 -3 -5 6
-20z"/>
<path d="M3281 2724 c0 -11 3 -14 6 -6 3 7 2 16 -1 19 -3 4 -6 -2 -5 -13z"/>
<path d="M4601 2704 c0 -11 3 -14 6 -6 3 7 2 16 -1 19 -3 4 -6 -2 -5 -13z"/>
<path d="M3290 2650 c0 -5 5 -10 11 -10 5 0 7 5 4 10 -3 6 -8 10 -11 10 -2 0
-4 -4 -4 -10z"/>
<path d="M3638 2613 c155 -2 409 -2 565 0 155 1 28 2 -283 2 -311 0 -438 -1
-282 -2z"/>
<path d="M3719 1723 c-13 -16 -12 -17 4 -4 9 7 17 15 17 17 0 8 -8 3 -21 -13z"/>
<path d="M4250 1716 c0 -2 7 -9 15 -16 13 -11 14 -10 9 4 -5 14 -24 23 -24 12z"/>
<path d="M4306 1681 c-3 -4 4 -17 17 -27 22 -19 22 -19 4 2 -9 11 -14 24 -10
27 3 4 4 7 0 7 -3 0 -8 -4 -11 -9z"/>
<path d="M927 1650 c-68 -12 -135 -47 -187 -100 -174 -174 -125 -462 98 -572
60 -30 75 -33 152 -33 72 0 94 5 145 28 78 36 146 104 181 181 24 51 28 75 29
146 0 77 -3 92 -33 152 -71 146 -225 224 -385 198z"/>
<path d="M3920 1649 c-199 -40 -327 -241 -276 -436 27 -109 97 -191 201 -240
51 -23 73 -28 145 -28 108 0 177 30 254 108 176 181 108 488 -129 579 -53 21
-140 28 -195 17z"/>
<path d="M4366 1598 c3 -5 10 -6 15 -3 13 9 11 12 -6 12 -8 0 -12 -4 -9 -9z"/>
<path d="M4466 1513 c-6 -14 -5 -15 5 -6 7 7 10 15 7 18 -3 3 -9 -2 -12 -12z"/>
<path d="M4430 1496 c0 -2 7 -9 15 -16 9 -7 15 -8 15 -2 0 5 -7 12 -15 16 -8
3 -15 4 -15 2z"/>
</g>
</svg>
